<svg width="32" height="32" viewBox="0 0 32 32" xmlns="http://www.w3.org/2000/svg"><path d="M22.843 11.438a.867.867 0 00.262.36l-7.06 12.416-7.087-12.47a.997.997 0 00.199-.306zm-7.132 8.142c-.124 0-.225.1-.225.225v.004c0 .11.069.197.165.222l.06.008a.223.223 0 00.226-.23v-.004a.225.225 0 00-.226-.225zm-1.901-2.22a.225.225 0 00-.209.141l-.008.024-.008.06c0 .127.099.226.225.226s.225-.099.225-.225-.099-.226-.225-.226zm3.616-4.436c-.451-.167-.718.015-.834.136l-.009.01a.387.387 0 00-.068.089c0 .009-.01.018 0 .018 0 .009.009.009.018.018.802.397 1.407.703 1.668.838l.027.018c.027.018.108.055.117.118.011.053-.023.107-.068.155l-.039.038-.046.041-.04.034c-.103.086-.241.198-.997.787a.324.324 0 01-.108.072.293.293 0 01-.126.036h-.027c-.045 0-.082 0-.235-.063a.443.443 0 00-.207-.027l-.09.027c-.018.009-.027.018-.045.027a.322.322 0 01-.026.022l.017-.013a.402.402 0 00-.064.054c-.009.009-.009.018-.009.027.014 0 .023 0 .03.004l.003.008.013.006c.018 0 .027 0 .045.009a.13.13 0 01.063.018 1.028 1.028 0 01.21.116l-.048-.035a.955.955 0 01.108.09.955.955 0 01.09.108l.082.118.072.099a.521.521 0 01.045.126.686.686 0 01.027.19v.108c0 .009 0 .018.009.027l.004.002.005.007h.027c.027-.018.054-.027.072-.045.009-.018.027-.027.036-.036a.14.14 0 00.054-.073c.036-.08.036-.162.036-.207-.018-.171 0-.207.018-.243 0-.01.01-.018.01-.027a.324.324 0 01.071-.109.955.955 0 01.109-.09 22.98 22.98 0 011.029-.7l.062-.04c.08-.044.198-.125.28-.08a.121.121 0 01.029.024c.024.039.036.094.042.12l.01.045c.053.316.162.965.297 1.83 0 .01.009.018.009.018.001.006.003.01.009.01.009.008.009.008.018.008s.523-.117.487-.793l-.072-1.614v-.04a.543.543 0 01.225-.429l.487-.387s.297-.208.243-.532c-.009-.01-.009-.018-.018-.018l.007.004c-.007-.011-.011-.014-.016-.014-.297-.153-.577.073-.577.073l-.523.351a.512.512 0 01-.514.072l-.487-.17zm-4.058.541a.226.226 0 00-.225.226v.004c0 .11.069.196.165.222l.06.008a.223.223 0 00.226-.23v-.004a.226.226 0 00-.226-.226zm1.704-1.127a.226.226 0 00-.225.226v.004c0 .11.069.196.165.222l.06.008a.223.223 0 00.226-.23v-.004a.226.226 0 00-.226-.226zm-4.12 0a.226.226 0 00-.226.226l.001.004c0 .11.068.196.164.222l.06.008a.223.223 0 00.226-.23v-.004c0-.125-.1-.226-.225-.226zM8.03 22.492c.036-.172.08-.352.135-.56l.054-.216c.081-.288.171-.595.28-.91.026-.081.053-.154.071-.226.046-.144.09-.288.136-.423a1.51 1.51 0 01.063-.19c-.244-.054-.532-.126-.839-.19a18.805 18.805 0 01-.901-.225c-.217-.063-.415-.117-.586-.18-.063-.018-.118-.045-.172-.063a1.985 1.985 0 01-.189-.081.89.89 0 01-.135-.081c-.081.225-.154.45-.235.676.388 1.037.92 1.993 1.587 2.858.235.054.46.1.694.153a1.3 1.3 0 01.037-.342zM6.172 18.48c.072-.01.144-.019.235-.019.207 0 .45.01.73.037.288.027.604.072.947.135.351.063.712.126 1.082.207.099-.28.198-.577.306-.901a20.2 20.2 0 01.496-1.308 6.19 6.19 0 01.162-.342c.036-.082.072-.145.109-.199a.88.88 0 01.099-.126.274.274 0 01.063-.045.254.254 0 01.135-.036L8.4 12.069l-2.227 6.41zm5.671 2.127c-.072-.018-.153-.027-.225-.045a11.365 11.365 0 01-.478-.099l-.243-.054c-.334-.072-.64-.135-.929-.19-.063.181-.126.352-.198.533a8.394 8.394 0 01-.199.505c-.063.162-.126.315-.189.468a9.247 9.247 0 01-.19.415 6.66 6.66 0 01-.351.65.857.857 0 01-.135.189l6.744 1.487-2.245-3.85-.036.036a.189.189 0 01-.054.037c-.081.045-.235.054-.47.036a8.8 8.8 0 01-.576-.082c-.081-.009-.153-.027-.226-.036zm-.847-3.615c-.018.09-.045.19-.072.297l-.054.217c-.063.216-.127.442-.208.676a9.465 9.465 0 00-.153.469c-.054.153-.1.306-.153.45.243.064.478.118.685.172.108.027.207.054.307.072.099.027.189.045.279.072.045.01.09.018.126.036l.127.027c.08.018.153.036.225.063.144.037.28.073.388.109.108.027.198.063.28.09l-1.714-3.012a1.855 1.855 0 00-.063.262zm-1.091 8.124c.18.117.37.234.577.351.559.325 1.091.568 1.569.758.135.054.27.108.424.162a11 11 0 003.282.577v-1.776c-2.597-.568-5.185-1.145-7.782-1.713a11.984 11.984 0 001.93 1.64z" fill="#436697" fill-rule="nonzero"/></svg>