<svg width="32" height="32" viewBox="0 0 32 32" xmlns="http://www.w3.org/2000/svg"><path d="M16.95 6.21c.484.127.803.358.803.627 0 .27-.324.5-.803.627.66-.06 1.155-.319 1.155-.627s-.495-.569-1.155-.627zm-1.591 2.472a.254.254 0 00.254-.25.253.253 0 00-.075-.18.244.244 0 00-.18-.07.248.248 0 00-.245.25c0 .138.11.25.246.25zm-6.645.842a.252.252 0 00-.176.43c.047.047.11.072.176.07a.252.252 0 00.176-.43.237.237 0 00-.176-.07zm.693 8.073a.252.252 0 00.176-.43.237.237 0 00-.176-.07.252.252 0 00-.25.25c.005.14.115.25.25.25zm6.072.957a.252.252 0 00.176-.43.237.237 0 00-.176-.07.255.255 0 00-.25.255.263.263 0 00.25.245zm1.365-9.867a.254.254 0 00.254-.25.253.253 0 00-.075-.18.244.244 0 00-.18-.07.248.248 0 00-.245.25c0 .139.11.25.246.25zm-.122 9.373a.254.254 0 00-.25.25c.01.137.117.245.25.25a.252.252 0 00.176-.43.237.237 0 00-.176-.07zm-6.777 1.683a.232.232 0 00-.218.116.263.263 0 00-.006.258c.044.08.126.129.214.125h.01a.25.25 0 00.245-.25.25.25 0 00-.066-.172.242.242 0 00-.18-.077zm1.509-.451a.248.248 0 00-.246.25c0 .138.11.25.246.25a.254.254 0 00.254-.25.253.253 0 00-.075-.18.244.244 0 00-.18-.07zm9.296 0a.25.25 0 10.019.5.25.25 0 00-.02-.5z" fill="#372d2c" fill-rule="nonzero"/></svg>