<svg xmlns="http://www.w3.org/2000/svg" width="32" height="32" viewBox="0 0 32 32"><path fill="#8200ff" d="M12.897 13.314v5.761c0 .11.013.22.04.328a1.38 1.38 0 001.511 1.013v.939c0 .31-.215.58-.522.655l-3.448.844a.69.69 0 01-.837-.491.662.662 0 01-.02-.164v-7.556c0-.31.215-.58.522-.655l2.754-.674zm7.586.042v5.74c0 .11.014.22.04.328.186.723.935 1.163 1.674.982l.01-.002v.95a.68.68 0 01-.522.656l-3.449.844a.69.69 0 01-.836-.491.662.662 0 01-.02-.164v-7.556c0-.31.215-.58.522-.655l2.58-.632z" opacity=".504"/></svg>